<?xml version="1.0" encoding="utf-8"?>
<!-- Generator: Adobe Illustrator 19.0.0, SVG Export Plug-In . SVG Version: 6.00 Build 0)  -->
<svg version="1.1" id="xg-0" xmlns:svgjs="http://svgjs.dev/svgjs"
	 xmlns="http://www.w3.org/2000/svg" xmlns:xlink="http://www.w3.org/1999/xlink" x="0px" y="0px"
	 viewBox="1833.8 -107 1797.3 421.8" style="enable-background:new 1833.8 -107 1797.3 421.8;" xml:space="preserve">
<style type="text/css">
	.st0{display:none;fill:none;}
	.st1{fill:#26C6B3;}
	.st2{fill:#D3EFEB;}
</style>
<rect x="360" y="-100" class="st0" width="1000" height="1000"/>
<g>
	<path class="st1" d="M2097.4,119.4c-5.2-5.5-9.7-19.8-9.7-30.1c0-8-4.4-16.2-11-20.4c-3-1.9-6.4-2.9-10.1-2.9
		c-3.6,0-7.4,0.9-11.3,2.8c-11.6,5.5-15.3,13.3-16.4,18.8c-1.4,7.3,0.9,15.2,6.3,21.1c10.6,11.7,10.2,32.8,9.7,40.1
		C2073.4,147,2089.4,135.6,2097.4,119.4z"/>
	<path class="st1" d="M2056.4,43.4c-2.2-0.3-4.5-0.4-6.7-0.4c-26.6,0-49.2,19.9-52.6,46.4c-0.7,5.6-0.5,11.2,0.6,16.8
		c3.3-2.3,6.8-4.6,10.6-7l0.8-0.5c0.4-0.3,0.8-0.4,1.3-0.4c0.4,0,0.8,0.1,1.2,0.3l0.8,0.5c0.8,0.5,19,11.4,18.1,27.8l0,0.7
		c0,0.7-0.4,1.3-0.9,1.7l-0.5,0.4c-3.7,2.9-7.4,5.8-11.1,8.7c7.4,5.6,16,9.1,25.3,10.3c1.3,0.2,2.6,0.3,4,0.3
		c0.4-5.5,1.2-25.3-7.6-35c-7-7.7-10.1-18.1-8.2-27.8c2-10.3,9.4-18.9,20.7-24.3c5-2.4,9.9-3.6,14.6-3.6c5.1,0,9.9,1.4,14.2,4.1
		c8.7,5.5,14.5,16.3,14.6,26.9c0,8.4,3,16.8,5.4,21.5c0.8-2.6,1.3-5.3,1.7-8.1c1.8-14.1-2-28-10.7-39.2
		C2083,52.3,2070.5,45.1,2056.4,43.4z"/>
	<path class="st1" d="M1991.6,78.3c-22.1,3.7-39.6,10.4-52.1,19.8c-12.2,9.2-16.3,18.8-17.5,22.5c7.2,7.9,17.9,15.1,31.6,21.1
		c7.2-7.7,18.8-17.9,37.2-31c-1.9-7.3-2.3-14.9-1.4-22.5C1989.9,84.9,1990.6,81.6,1991.6,78.3z"/>
	<path class="st1" d="M1934.6,92.2c14.4-11,34.7-18.4,60.2-22.2c9.8-20.7,30.9-34.8,54.9-34.8c2.6,0,5.1,0.2,7.7,0.5
		c8.5,1.1,16.5,3.9,23.6,8.1c3-2.3,5.9-4.4,8.6-6.3c-14.1-2.3-28.9-3.5-44.1-3.5c-36.1,0-70,6.7-95.6,18.8
		c-25,11.8-38.7,27.4-38.7,43.7c0,5.8,1.8,11.6,5.2,17.1C1919.2,108,1924.4,100,1934.6,92.2z"/>
	<path class="st1" d="M2106.4,118c0,0,0,0.1,0,0.1c-0.1,0.3-0.2,0.6-0.4,0.8c-9.2,22.3-31.1,37.8-56.2,37.8c-2.5,0-5.1-0.2-7.7-0.5
		c-11.3-1.4-21.8-5.9-30.6-13.1c-5.2,4-10.1,7.9-14.6,11.4c15.5,2.8,31.8,4.3,48.6,4.3c36.1,0,70-6.7,95.6-18.8
		c11.6-5.5,20.8-11.8,27.3-18.6c-0.8-2.9-4.5-13.3-17.8-23.3c-10.6-8-24.7-14-42.1-17.9c2,7.5,2.6,15.4,1.6,23.3
		C2109.4,108.6,2108.2,113.5,2106.4,118z"/>
	<path class="st1" d="M2097.8,58.8c1.3,1.7,2.5,3.4,3.6,5.2c27.8-19.7,29-20.4,29.4-20.6c0.1-0.1,0.3-0.2,0.6-0.3l0.1-0.1
		c2.6-1.5,8.5-5,9.9-11c0.4-1.6,0.1-2.9-0.9-4.1c-1.6-2-4.8-3.3-8-3.3c-0.4,0-0.9,0-1.3,0.1l-0.2,0c-2.6,0.3-11.1,2.1-28.4,13.3
		c0,0.1-0.1,0.1-0.1,0.2c-0.4,0.8-1.2,1.3-2.1,1.3c0,0,0,0,0,0c-3.8,2.5-8.1,5.5-12.7,9C2091.4,51.5,2094.8,54.9,2097.8,58.8z"/>
	<path class="st1" d="M2237,102l-16.3-71.4c-7.6-33.2-29.9-61.2-60.6-75.9l-66-31.8c-30.7-14.8-66.4-14.8-97.1,0l-66,31.8
		c-30.7,14.8-53,42.7-60.6,75.9l-16.3,71.4c-7.6,33.2,0.4,68.1,21.6,94.7l45.7,57.3c21.2,26.6,53.4,42.1,87.5,42.1h73.3
		c34.1,0,66.3-15.5,87.5-42.1l45.7-57.3C2236.6,170,2244.5,135.2,2237,102z M2159.7,171.5c-24.6,26.8-63.3,40.8-114.8,41.6
		c0,0,0,0,0,0h0c-51.6-0.8-90-14.8-114.3-41.6c-29-32.1-27.1-72.1-26.9-75c0,0,0-0.1,0-0.1c0-19,15-36.8,42.3-50.1
		c26.7-13,62.1-20.1,99.7-20.1c18.4,0,36.3,1.7,53.2,5.1c18.1-11.7,27.7-14,31.5-14.4c0.8-0.1,1.5-0.1,2.3-0.1c5.5,0,11,2.4,14,6.2
		c2.4,3,3.3,6.7,2.4,10.6c-1.1,4.9-4,8.6-6.9,11.3c29,13.2,45.5,31.8,45.5,51.6c0,0,0,0.1,0,0.1
		C2187.7,99,2189.2,139.4,2159.7,171.5z"/>
	<path class="st1" d="M2145.3,146.5c-26.7,13-62.1,20.1-99.7,20.1c-19.6,0-38.6-2-56.6-5.8c-8.1,6.4-13.6,10.6-14.1,11.2
		c-0.1,0.1-0.5,0.5-0.5,0.5c-2.6,2.5-9.7,9.1-19.2,9.1c-0.4,0-0.9,0-1.3,0c22.4,15.2,52.9,23.2,91,23.8c49.3-0.7,86-13.9,109.2-39
		c12.9-14,19.4-29.7,22.7-42.6C2169.4,132.2,2158.9,139.9,2145.3,146.5z"/>
	<path class="st1" d="M2134.7,49.9c-0.6,0.4-4.8,3.2-29.7,20.8c0.2,0.3,0.3,0.7,0.5,1c20.8,4.1,37.6,11,50,20.4
		c10.8,8.2,16,16.6,18.5,22.3c3.8-5.8,5.8-11.8,5.8-18C2179.8,78.8,2163.4,61.9,2134.7,49.9z"/>
	<path class="st1" d="M1948.4,147.8c-15.2-7-26.9-15.5-34.5-24.9c3,13,9.3,29.1,22.3,43.4c1.7,1.9,3.5,3.7,5.4,5.5
		c-1.5-4.5-1.2-9.9,0.8-14.5C1943.2,155.3,1944.9,152.2,1948.4,147.8z"/>
	<path class="st1" d="M1955.1,173.9c6.5,0,11.7-4.9,13.9-7l0.1-0.1c0.2-0.2,0.4-0.4,0.6-0.5c2-1.8,44.6-35,53-41.5
		c-0.6-8.3-8.8-15.2-12.4-17.8c-49.1,32-58.9,48.8-60.8,53.2l-0.1,0.2c-1.5,3.4-1.4,7.9,0.2,10.7c1,1.7,2.4,2.6,4.5,2.7
		C1954.5,173.8,1954.8,173.9,1955.1,173.9z"/>
</g>
<g>
	<path class="st2" d="M2373.4,169.1c-16.7,0-30.6-5.2-41.2-15.5c-10.6-10.3-16-24.8-16-43.2c0-17.9,5.5-32.2,16.4-42.5
		c10.9-10.3,24.7-15.5,41.2-15.5c8.1,0,15.7,1.8,22.6,5.3c4.9,2.5,9,5.8,12.3,9.8l0.4-10.9c0-1.1,0.9-1.9,2-1.9h21.8
		c1.1,0,2,0.9,2,2v107.5c0,1.1-0.9,2-2,2h-21.4c-1.1,0-1.9-0.8-2-1.9l-0.7-11.2c-3.3,4.3-7.6,7.8-13,10.4
		C2388.5,167.3,2380.9,169.1,2373.4,169.1z M2375.6,76.9c-9.3,0-17.2,3.1-23.5,9.2c-6.3,6.1-9.4,14.3-9.4,24.3
		c0,10.1,3.2,18.4,9.4,24.5c6.3,6.1,14.2,9.2,23.5,9.2c10.5,0,18.5-3.2,24.2-9.9c5.8-6.6,8.7-14.7,8.7-23.9c0-9-2.9-17-8.7-23.7
		C2394,80.1,2386.1,76.9,2375.6,76.9z"/>
	<path class="st2" d="M2411.1,56.8h21.8v107.5h-21.4l-1.1-17.4c-3.2,6.5-8.4,11.6-15.5,15c-7.1,3.5-14.3,5.2-21.6,5.2
		c-16.3,0-29.5-5-39.8-14.9c-10.2-10-15.4-23.9-15.4-41.7c0-17.4,5.3-31.1,15.8-41.1c10.5-10,23.8-14.9,39.8-14.9
		c7.8,0,15.1,1.7,21.7,5.1c6.6,3.4,11.6,8.2,14.9,14.3L2411.1,56.8z M2375.6,74.9c-9.9,0-18.2,3.3-24.9,9.8
		c-6.7,6.5-10,15.1-10,25.7c0,10.8,3.3,19.4,10,25.9c6.7,6.5,15,9.8,24.9,9.8c11,0,19.6-3.5,25.7-10.6c6.1-7,9.2-15.4,9.2-25.2
		c0-9.6-3.1-17.9-9.2-25C2395.2,78.4,2386.6,74.9,2375.6,74.9z"/>
	<path class="st2" d="M2467.8,166.3c-1.1,0-2-0.9-2-2V56.8c0-1.1,0.9-2,2-2h20.9c1,0,1.9,0.8,2,1.8l0.9,8.7
		c6.8-8.6,16.9-12.9,30.2-12.9c11.4,0,20.7,3.3,27.9,9.7c0.7,0.6,0.9,1.6,0.4,2.4L2540,84.1c-0.3,0.5-0.8,0.9-1.4,1
		c-0.1,0-0.3,0-0.4,0c-0.5,0-0.9-0.2-1.3-0.4c-5-4-10.9-6.1-17.7-6.1c-7.7,0-14.2,2.4-19.4,7.1c-5.1,4.7-7.6,11.5-7.6,20.3v58.2
		c0,1.1-0.9,2-2,2H2467.8z"/>
	<path class="st2" d="M2488.7,56.8l1.5,14.2c6.2-11,16.8-16.6,31.6-16.6c10.9,0,19.8,3.1,26.6,9.2l-10.2,19.6
		c-5.4-4.4-11.7-6.5-19-6.5c-8.3,0-15.2,2.5-20.7,7.6c-5.5,5.1-8.3,12.4-8.3,21.8v58.2h-22.5V56.8H2488.7z"/>
	<path class="st2" d="M2614.9,167.6c-11.9,0-21.1-3.5-27.4-10.3c-6.3-6.8-9.5-16.8-9.5-29.6V78.4h-18.7c-1.1,0-2-0.9-2-2V57
		c0-1.1,0.9-2,2-2h18.7V28.2c0-1,0.8-1.9,1.8-2l22.7-2.4c0.1,0,0.1,0,0.2,0c0.5,0,1,0.2,1.3,0.5c0.4,0.4,0.7,0.9,0.7,1.5V55h29.4
		c1.1,0,2,0.9,2,2v19.4c0,1.1-0.9,2-2,2h-29.6v49.2c0,10.7,4.3,15.7,13.5,15.7c4.3,0,8.6-1.2,12.8-3.5c0.3-0.2,0.6-0.2,1-0.2
		c0.2,0,0.5,0,0.7,0.1c0.6,0.2,1,0.7,1.2,1.2l6.5,19.2c0.3,1-0.1,2.1-1.1,2.5C2631.3,165.9,2623.2,167.6,2614.9,167.6z"/>
	<path class="st2" d="M2602.7,25.9V57h31.4v19.4h-31.6v51.2c0,11.8,5.2,17.7,15.5,17.7c4.6,0,9.2-1.2,13.7-3.7l6.5,19.2
		c-7.6,3.2-15.3,4.8-23.3,4.8c-11.3,0-20-3.2-25.9-9.7c-6-6.5-8.9-15.9-8.9-28.2V76.4h-20.7V57h20.7V28.2L2602.7,25.9z"/>
	<path class="st2" d="M2661.1,166.3c-1.1,0-2-0.9-2-2V56.4c0-1.1,0.9-2,2-2h22.5c1.1,0,2,0.9,2,2v107.9c0,1.1-0.9,2-2,2H2661.1z
		 M2672.5,41.1c-4.3,0-8-1.4-11.1-4.2c-3.2-2.9-4.8-6.8-4.8-11.7c0-4.9,1.6-8.9,4.8-11.6c3.1-2.7,6.9-4.1,11.1-4.1
		c4.3,0,8,1.4,11.1,4.1c3.2,2.8,4.8,6.7,4.8,11.6c0,4.9-1.6,8.9-4.8,11.7C2680.5,39.7,2676.8,41.1,2672.5,41.1z"/>
	<path class="st2" d="M2662.7,35.4c-2.8-2.5-4.1-5.9-4.1-10.2s1.4-7.7,4.1-10.1c2.8-2.4,6-3.6,9.8-3.6c3.8,0,7,1.2,9.8,3.6
		c2.8,2.4,4.1,5.8,4.1,10.1s-1.4,7.8-4.1,10.2c-2.8,2.5-6,3.7-9.8,3.7C2668.7,39.1,2665.4,37.9,2662.7,35.4z M2683.6,56.4v107.9
		h-22.5V56.4H2683.6z"/>
	<path class="st2" d="M2759,169.6c-21.4,0-38.4-6.9-50.5-20.5c-0.6-0.7-0.7-1.8-0.1-2.5l11.8-15.9c0.4-0.5,0.9-0.8,1.5-0.8
		c0,0,0.1,0,0.1,0c0.6,0,1.1,0.2,1.5,0.6c9.2,9.9,21.4,15,36.3,15.3c5.7,0,10.8-1.1,15.1-3.4c3.9-2,5.8-5,5.8-9c0-3.6-1.6-6.2-5.1-8
		c-3.9-2.1-9.9-3.5-17.9-4.4c-30.3-2.6-45.6-14.1-45.6-34.3c0-11.6,4.9-20.4,14.6-26.1c9.4-5.5,20.1-8.3,32.1-8.3
		c17,0,31.4,4.9,42.7,14.6c0.8,0.7,0.9,2,0.2,2.8l-12.6,14.8c-0.4,0.4-0.9,0.7-1.4,0.7c0,0-0.1,0-0.1,0c-0.5,0-1-0.2-1.4-0.5
		c-6.9-6.3-16.2-9.5-27.9-9.5c-6.4,0-11.5,1-15.1,3.1c-3.3,1.9-4.9,4.4-4.9,7.7c0.1,3.4,1.8,5.9,5,7.6c3.7,1.9,9.2,3.3,16.5,4.1
		c4.7,0.4,9,1,12.5,1.5c3.6,0.6,7.7,1.7,12.3,3.2c4.7,1.6,8.6,3.6,11.6,6c3.1,2.4,5.7,5.8,7.7,10.1c2.1,4.3,3.1,9.3,3.1,14.9
		c0,10.6-4.5,19.4-13.3,26.1C2784.8,166.2,2773.2,169.6,2759,169.6z"/>
	<path class="st2" d="M2787.1,83.2c-7.3-6.7-17-10-29.2-10c-6.8,0-12.2,1.1-16.1,3.4c-3.9,2.3-5.9,5.4-5.9,9.5
		c0.1,4.2,2.2,7.3,6.1,9.4c3.9,2,9.7,3.5,17.2,4.4c4.8,0.4,8.9,0.9,12.4,1.5c3.5,0.6,7.5,1.6,12,3.2c4.5,1.5,8.2,3.4,11,5.7
		c2.8,2.3,5.2,5.4,7.2,9.4c2,4,2.9,8.7,2.9,14.1c0,10-4.2,18.2-12.5,24.5c-8.4,6.3-19.4,9.5-33.2,9.5c-20.9,0-37.3-6.6-49-19.8
		l11.8-15.9c9.6,10.3,22.2,15.6,37.7,15.9c6.1,0,11.4-1.2,16-3.6c4.6-2.4,6.9-6,6.9-10.8c0-4.4-2.1-7.6-6.2-9.8
		c-4.1-2.2-10.4-3.7-18.6-4.6c-29.2-2.5-43.8-13.2-43.8-32.3c0-10.9,4.5-19,13.6-24.4c9.1-5.4,19.4-8.1,31.1-8.1
		c16.6,0,30.4,4.7,41.4,14.2L2787.1,83.2z"/>
	<path class="st2" d="M2878.5,167.6c-11.9,0-21.1-3.5-27.4-10.3c-6.3-6.8-9.5-16.8-9.5-29.6V78.4h-18.7c-1.1,0-2-0.9-2-2V57
		c0-1.1,0.9-2,2-2h18.7V28.2c0-1,0.8-1.9,1.8-2l22.7-2.4c0.1,0,0.1,0,0.2,0c0.5,0,1,0.2,1.3,0.5c0.4,0.4,0.7,0.9,0.7,1.5V55h29.4
		c1.1,0,2,0.9,2,2v19.4c0,1.1-0.9,2-2,2h-29.6v49.2c0,10.7,4.3,15.7,13.5,15.7c4.3,0,8.6-1.2,12.8-3.5c0.3-0.2,0.6-0.2,1-0.2
		c0.2,0,0.5,0,0.7,0.1c0.6,0.2,1,0.7,1.2,1.2l6.5,19.2c0.3,1-0.1,2.1-1.1,2.5C2894.8,165.9,2886.7,167.6,2878.5,167.6z"/>
	<path class="st2" d="M2866.3,25.9V57h31.4v19.4h-31.6v51.2c0,11.8,5.2,17.7,15.5,17.7c4.6,0,9.2-1.2,13.7-3.7l6.5,19.2
		c-7.6,3.2-15.3,4.8-23.3,4.8c-11.3,0-20-3.2-25.9-9.7c-6-6.5-8.9-15.9-8.9-28.2V76.4h-20.7V57h20.7V28.2L2866.3,25.9z"/>
	<path class="st2" d="M2924.7,166.3c-1.1,0-2-0.9-2-2V56.4c0-1.1,0.9-2,2-2h22.5c1.1,0,2,0.9,2,2v107.9c0,1.1-0.9,2-2,2H2924.7z
		 M2936,41.1c-4.3,0-8-1.4-11.1-4.2c-3.2-2.9-4.8-6.8-4.8-11.7c0-4.9,1.6-8.9,4.8-11.6c3.1-2.7,6.9-4.1,11.1-4.1
		c4.3,0,8,1.4,11.1,4.1c3.2,2.8,4.8,6.7,4.8,11.6c0,4.9-1.6,8.9-4.8,11.7C2944.1,39.7,2940.3,41.1,2936,41.1z"/>
	<path class="st2" d="M2926.2,35.4c-2.8-2.5-4.1-5.9-4.1-10.2s1.4-7.7,4.1-10.1c2.8-2.4,6-3.6,9.8-3.6c3.8,0,7,1.2,9.8,3.6
		c2.8,2.4,4.1,5.8,4.1,10.1s-1.4,7.8-4.1,10.2c-2.8,2.5-6,3.7-9.8,3.7C2932.3,39.1,2929,37.9,2926.2,35.4z M2947.2,56.4v107.9h-22.5
		V56.4H2947.2z"/>
	<path class="st2" d="M3032.2,169.3c-16.7,0-30.8-5.2-41.9-15.4c-11.1-10.2-16.8-24.7-16.8-43.1c0-18.4,5.6-32.9,16.7-43.1
		c11-10.2,25.2-15.4,42-15.4c15.6,0,29.1,5.5,40.2,16.5c0.8,0.8,0.8,2,0,2.8l-14.2,14.6c-0.4,0.4-0.9,0.6-1.4,0.6
		c-0.5,0-0.9-0.2-1.3-0.5c-6.6-5.7-14.3-8.7-23.1-8.7c-9.4,0-17,3-23.2,9.1c-6.1,6-9.2,14.1-9.2,24c0,10.3,3.1,18.4,9.2,24
		c6.1,5.7,13.9,8.6,23.1,8.6c9.9,0,18-3.2,24.1-9.4c0.4-0.4,0.9-0.6,1.4-0.6c0,0,0,0,0,0c0.5,0,1,0.2,1.4,0.6l15.3,15
		c0.4,0.4,0.6,0.9,0.6,1.4s-0.2,1-0.6,1.4C3062.7,163.5,3048.5,169.3,3032.2,169.3z"/>
	<path class="st2" d="M3072.9,150.5c-11.3,11.2-24.9,16.8-40.8,16.8c-16.3,0-29.8-4.9-40.5-14.8c-10.8-9.9-16.1-23.8-16.1-41.6
		s5.3-31.8,16-41.6c10.7-9.9,24.2-14.8,40.7-14.8c15.1,0,28,5.3,38.8,15.9l-14.2,14.6c-7-6.1-15.1-9.2-24.4-9.2
		c-9.9,0-18.1,3.2-24.6,9.7c-6.5,6.5-9.8,14.9-9.8,25.4c0,10.9,3.3,19.4,9.8,25.5s14.7,9.2,24.4,9.2c10.5,0,19-3.3,25.5-10
		L3072.9,150.5z"/>
	<path class="st2" d="M3146.2,169.3c-18,0-32.7-5.4-43.6-16c-10.9-10.7-16.4-25.1-16.4-42.8c0-16.9,5.5-30.9,16.3-41.7
		c10.8-10.8,25-16.3,42.2-16.3c17,0,30.8,5,41.1,14.7c10.2,9.8,15.4,24.1,15.4,42.6c0,2.1-0.1,5.3-0.4,9.7c-0.1,1.1-0.9,1.9-2,1.9
		h-84.9c1.3,6.7,4.5,12,9.8,16.2c5.9,4.6,13.6,6.9,23,6.9c5.7,0,11.4-1,17-2.9c5.5-1.9,9.7-4.6,12.7-7.9c0.4-0.4,0.9-0.7,1.4-0.7
		c0,0,0.1,0,0.1,0c0.5,0,1,0.2,1.4,0.6l14.6,14.2c0.8,0.7,0.8,2,0.1,2.8c-5.6,6.2-12.8,10.9-21.4,14.2
		C3164,167.7,3155.1,169.3,3146.2,169.3z M3174.9,98.4c-1-6.8-3.8-12-8.5-15.7c-5.2-4.1-12.3-6.2-21.1-6.2c-8.1,0-15,2.1-20.6,6.3
		c-5,3.7-8.4,9-10.2,15.7H3174.9z"/>
	<path class="st2" d="M3111.5,119.4c1,8.3,4.6,14.9,10.9,19.7c6.2,4.9,14.3,7.3,24.2,7.3c6,0,11.8-1,17.7-3.1
		c5.8-2,10.3-4.9,13.5-8.5l14.6,14.2c-5.4,6-12.2,10.5-20.6,13.6c-8.4,3.1-16.9,4.7-25.6,4.7c-17.6,0-31.6-5.2-42.2-15.5
		c-10.5-10.3-15.8-24.1-15.8-41.4c0-16.4,5.2-29.9,15.7-40.3c10.5-10.5,24.1-15.7,40.8-15.7c16.6,0,29.8,4.7,39.7,14.2
		c9.9,9.4,14.8,23.2,14.8,41.2c0,2-0.1,5.2-0.4,9.6H3111.5z M3177.1,100.4c-0.7-8.4-3.9-14.9-9.5-19.3c-5.6-4.4-13-6.6-22.3-6.6
		c-8.6,0-15.8,2.2-21.8,6.6c-6,4.4-9.8,10.9-11.6,19.3H3177.1z"/>
	<path class="st2" d="M3274.4,168.5c-16.6,0-30.4-5.2-41-15.5c-10.6-10.3-16-24.6-16-42.5c0-18.2,5.3-32.6,15.8-42.7
		c10.4-10.1,24.1-15.3,40.7-15.3c7.5,0,15.2,1.8,22.8,5.3c5.3,2.5,9.7,5.7,13,9.5V11.9c0-1.1,0.9-2,2-2h22.5c1.1,0,2,0.9,2,2v152.4
		c0,1.1-0.9,2-2,2H3313c-1,0-1.9-0.8-2-1.8l-0.9-11.5C3301.8,163.3,3289.9,168.5,3274.4,168.5z M3275.9,77.6c-9.3,0-17,3-23,8.9
		c-6,5.9-9,14-9,24c0,10,3,18.1,9,24.1c6.1,6.1,13.6,9,23,9c9,0,16.4-3,22.8-9.2c6.3-6.2,9.4-14,9.4-23.9c0-9.6-3.2-17.5-9.4-23.6
		C3292.3,80.6,3284.9,77.6,3275.9,77.6z"/>
	<path class="st2" d="M3334.1,11.9v152.4H3313l-1.3-17c-7.8,12.8-20.3,19.2-37.3,19.2c-16.1,0-29.3-5-39.6-14.9
		c-10.2-10-15.4-23.7-15.4-41.1c0-17.7,5-31.5,15.2-41.3c10.1-9.8,23.2-14.7,39.3-14.7c7.3,0,14.6,1.7,21.9,5.1
		c7.3,3.4,12.6,8.1,15.8,14.1V11.9H3334.1z M3275.9,75.6c-9.9,0-18,3.2-24.4,9.5c-6.4,6.3-9.6,14.8-9.6,25.4
		c0,10.6,3.2,19.1,9.6,25.5c6.4,6.4,14.5,9.6,24.4,9.6c9.4,0,17.5-3.3,24.2-9.8c6.7-6.5,10-15,10-25.3c0-10.2-3.3-18.5-10-25.1
		C3293.4,78.8,3285.3,75.6,3275.9,75.6z"/>
	<path class="st2" d="M3420.2,231.2c-18,0-32.5-4.4-43.2-13.2c-10.9-8.9-16.1-21.2-15.4-36.6c0-1.1,0.9-1.9,2-1.9h22.5
		c0.5,0,1.1,0.2,1.4,0.6c0.4,0.4,0.6,0.9,0.6,1.5c-0.3,7.2,2.7,12.8,8.9,17.1c6.5,4.5,14.3,6.7,23.3,6.7c8.8,0,16.5-1.9,23-5.5
		c6.2-3.5,9.2-8.2,9.2-14.5c0-6.8-2.7-11.8-8.4-15.6c-5.8-3.8-13.7-5.8-23.4-5.8c-18,0-32.7-5-43.6-14.9
		c-11-9.9-16.6-23.6-16.6-40.7c0-17.5,6.1-31.5,18.1-41.3c11.9-9.8,26.1-14.7,42.1-14.7c11.8,0,21.4,2.3,28.6,6.7l10.6-13
		c0.4-0.5,1-0.7,1.5-0.7c0.4,0,0.9,0.1,1.2,0.4l16.3,12.6c0.4,0.3,0.7,0.8,0.8,1.4c0.1,0.5-0.1,1.1-0.5,1.5l-11.8,13.8
		c8.3,10.2,12.5,21.4,12.5,33.3c0,19.5-8.5,33.5-25.3,41.7c16.7,7.1,25.1,18.9,25.1,35.2c0,14.4-6.1,25.9-18,33.9
		C3450.1,227.2,3436.1,231.2,3420.2,231.2z M3420.6,77.3c-9.4,0-17.4,2.7-23.9,8.1c-6.5,5.4-9.6,12.9-9.6,23
		c0,9.8,3.1,17.2,9.4,22.7c6.4,5.5,14.5,8.2,24.1,8.2c9.5,0,17.4-2.9,23.6-8.7c6.2-5.8,9.3-13.1,9.3-22.2c0-9.7-3.1-17.1-9.5-22.7
		C3437.7,80.2,3429.8,77.3,3420.6,77.3z"/>
	<path class="st2" d="M3461.4,47.4l16.3,12.6l-12.9,15c8.7,10.2,13.1,21.3,13.1,33.4c0,20.3-9.5,34.3-28.6,41.9
		c18.9,6.5,28.3,18.2,28.3,35.1c0,13.8-5.7,24.6-17.1,32.3c-11.4,7.7-24.9,11.6-40.4,11.6c-17.6,0-31.6-4.3-42-12.8
		c-10.4-8.5-15.3-20.2-14.7-35h22.5c-0.3,7.8,3,14.1,9.8,18.9c6.8,4.7,15,7.1,24.4,7.1c9.2,0,17.1-1.9,24-5.8
		c6.8-3.9,10.2-9.3,10.2-16.2c0-7.4-3.1-13.2-9.3-17.2c-6.2-4.1-14.4-6.1-24.5-6.1c-17.6,0-31.7-4.8-42.3-14.4
		c-10.6-9.6-15.9-22.7-15.9-39.2c0-17,5.8-30.3,17.3-39.8c11.6-9.5,25.2-14.3,40.9-14.3c12.4,0,22,2.5,29,7.4L3461.4,47.4z
		 M3420.6,75.3c-9.9,0-18.3,2.9-25.2,8.6c-6.9,5.7-10.4,13.9-10.4,24.5c0,10.3,3.4,18.4,10.1,24.2c6.8,5.8,15.2,8.7,25.4,8.7
		c10,0,18.3-3.1,25-9.3c6.6-6.2,9.9-14.1,9.9-23.7c0-10.2-3.4-18.2-10.1-24.2C3438.6,78.3,3430.4,75.3,3420.6,75.3z"/>
	<path class="st2" d="M3558.6,169.3c-18,0-32.7-5.4-43.6-16c-10.9-10.7-16.4-25.1-16.4-42.8c0-16.9,5.5-30.9,16.3-41.7
		c10.8-10.8,25-16.3,42.2-16.3c17,0,30.8,5,41.1,14.7c10.2,9.8,15.4,24.1,15.4,42.6c0,2.1-0.1,5.3-0.4,9.7c-0.1,1.1-0.9,1.9-2,1.9
		h-84.9c1.3,6.7,4.5,12,9.8,16.2c5.9,4.6,13.6,6.9,23,6.9c5.7,0,11.4-1,17-2.9c5.5-1.9,9.7-4.6,12.7-7.9c0.4-0.4,0.9-0.7,1.4-0.7
		c0,0,0.1,0,0.1,0c0.5,0,1,0.2,1.4,0.6l14.6,14.2c0.8,0.7,0.8,2,0.1,2.8c-5.6,6.2-12.8,10.9-21.4,14.2
		C3576.4,167.7,3567.6,169.3,3558.6,169.3z M3587.4,98.4c-1-6.8-3.8-12-8.5-15.7c-5.2-4.1-12.3-6.2-21.1-6.2c-8.1,0-15,2.1-20.6,6.3
		c-5,3.7-8.4,9-10.2,15.7H3587.4z"/>
	<path class="st2" d="M3524,119.4c1,8.3,4.6,14.9,10.9,19.7c6.2,4.9,14.3,7.3,24.2,7.3c6,0,11.8-1,17.7-3.1c5.8-2,10.3-4.9,13.5-8.5
		l14.6,14.2c-5.4,6-12.2,10.5-20.6,13.6c-8.4,3.1-16.9,4.7-25.6,4.7c-17.6,0-31.6-5.2-42.2-15.5c-10.5-10.3-15.8-24.1-15.8-41.4
		c0-16.4,5.2-29.9,15.7-40.3c10.5-10.5,24.1-15.7,40.8-15.7c16.6,0,29.8,4.7,39.7,14.2c9.9,9.4,14.8,23.2,14.8,41.2
		c0,2-0.1,5.2-0.4,9.6H3524z M3589.6,100.4c-0.7-8.4-3.9-14.9-9.5-19.3c-5.6-4.4-13-6.6-22.3-6.6c-8.6,0-15.8,2.2-21.8,6.6
		c-6,4.4-9.8,10.9-11.6,19.3H3589.6z"/>
</g>
</svg>
